<svg xmlns="http://www.w3.org/2000/svg" xmlns:xlink="http://www.w3.org/1999/xlink" version="1.1"
  width="800" height="800" viewBox="0 0 800 800" xml:space="preserve">
  <desc>Optimized SVG with Properly Scaled Content</desc>
  <rect x="0" y="0" width="100%" height="100%" fill="transparent"></rect>


  <!-- Bottom rectangle -->
  <g transform="matrix(1.1 0 0 1.1 -50 -260)">
  <g transform="matrix(3.4 0 0 3.4 400 600)">
    <rect style="stroke: rgb(115,201,145); stroke-width: 5; fill: none;" x="-95" y="-50" rx="10" ry="10" width="190" height="100" />
  </g>

    <!-- First row of squares -->
  <g transform="matrix(1 0 0 1 0 0)">
    <g transform="matrix(2.8 0 0 2.8 150 500)">
      <rect style="stroke: rgb(115,201,145); stroke-width: 2; fill: rgb(115,201,145);" x="-10" y="-10" rx="3" ry="3" width="20" height="20" />
    </g>
    <g transform="matrix(2.8 0 0 2.8 250 500)">
      <rect style="stroke: rgb(115,201,145); stroke-width: 2; fill: rgb(115,201,145);" x="-10" y="-10" rx="3" ry="3" width="20" height="20" />
    </g>
    <g transform="matrix(2.8 0 0 2.8 350 500)">
      <rect style="stroke: rgb(115,201,145); stroke-width: 2; fill: rgb(115,201,145);" x="-10" y="-10" rx="3" ry="3" width="20" height="20" />
    </g>
    <g transform="matrix(2.8 0 0 2.8 450 500)">
      <rect style="stroke: rgb(115,201,145); stroke-width: 2; fill: rgb(115,201,145);" x="-10" y="-10" rx="3" ry="3" width="20" height="20" />
    </g>
    <g transform="matrix(2.8 0 0 2.8 550 500)">
      <rect style="stroke: rgb(115,201,145); stroke-width: 2; fill: rgb(115,201,145);" x="-10" y="-10" rx="3" ry="3" width="20" height="20" />
    </g>
    <g transform="matrix(2.8 0 0 2.8 650 500)">
      <rect style="stroke: rgb(115,201,145); stroke-width: 2; fill: rgb(115,201,145);" x="-10" y="-10" rx="3" ry="3" width="20" height="20" />
    </g>
  </g>

    <!-- Second row of squares -->
  <g transform="matrix(1 0 0 1 0 0)">
    <g transform="matrix(2.8 0 0 2.8 180 600)">
      <rect style="stroke: rgb(115,201,145); stroke-width: 2; fill: rgb(115,201,145);" x="-10" y="-10" rx="3" ry="3" width="20" height="20" />
    </g>
    <g transform="matrix(2.8 0 0 2.8 280 600)">
      <rect style="stroke: rgb(115,201,145); stroke-width: 2; fill: rgb(115,201,145);" x="-10" y="-10" rx="3" ry="3" width="20" height="20" />
    </g>
    <g transform="matrix(2.8 0 0 2.8 380 600)">
      <rect style="stroke: rgb(115,201,145); stroke-width: 2; fill: rgb(115,201,145);" x="-10" y="-10" rx="3" ry="3" width="20" height="20" />
    </g>
    <g transform="matrix(2.8 0 0 2.8 480 600)">
      <rect style="stroke: rgb(115,201,145); stroke-width: 2; fill: rgb(115,201,145);" x="-10" y="-10" rx="3" ry="3" width="20" height="20" />
    </g>
    <g transform="matrix(2.8 0 0 2.8 580 600)">
      <rect style="stroke: rgb(115,201,145); stroke-width: 2; fill: rgb(115,201,145);" x="-10" y="-10" rx="3" ry="3" width="20" height="20" />
    </g>
  </g>

    <!-- Bottom rectangle -->
  <g transform="matrix(2.8 0 0 2.8 400 700)">
    <rect style="stroke: rgb(115,201,145); stroke-width: 2; fill: rgb(115,201,145);" x="-70" y="-10" rx="3" ry="3" width="140" height="20" />
  </g>
  </g>
</svg>