<svg xmlns="http://www.w3.org/2000/svg" xmlns:xlink="http://www.w3.org/1999/xlink" version="1.1"
  width="800" height="800" viewBox="0 0 800 800" xml:space="preserve">
  <desc>Optimized SVG with Properly Scaled Content</desc>
  <rect x="0" y="0" width="100%" height="100%" fill="transparent"></rect>

  <!-- Light bulb icon -->
  
    <g transform="matrix(7.5 0 0 7.5 10 -20)">
    <g style="" vector-effect="non-scaling-stroke">
      <g transform="matrix(1 0 0 1 0.85 5.92)">
        <path style="fill: rgb(208,208,208);" d="M 50.861 87.432 L 46.215 87.432 L 42.59 82.344 C 42.59 73.184 41.827 64.726 36.927 59.955 C 32.856 56.201 30.314 50.859 30.314 44.942 C 30.314 33.622 39.535 24.399 50.86 24.399 C 62.18 24.399 71.401 33.622 71.401 44.942 C 71.401 50.859 68.859 56.201 64.788 59.955 C 59.892 64.726 59.126 73.184 59.126 82.344 L 55.501 87.432 L 50.861 87.432 z M 44.625 74.33 L 57.093 74.33 C 57.794 67.778 59.574 60.908 62.817 57.792 C 66.315 54.547 68.48 49.969 68.48 44.879 C 68.48 35.148 60.591 27.261 50.862 27.261 C 41.128 27.261 33.239 35.148 33.239 44.879 C 33.239 49.969 35.404 54.547 38.84 57.792 C 42.083 60.908 43.928 67.778 44.625 74.33 z" />
      </g>
      <g transform="matrix(1 0 0 1 3 5)">
        <path style="fill: rgb(208,208,208);" d="M 80.181 45.262 L 74.838 45.262 C 74.076 45.262 73.502 44.688 73.502 43.926 C 73.502 43.227 74.076 42.589 74.838 42.589 L 80.181 42.589 C 80.944 42.589 81.518 43.227 81.518 43.926 C 81.518 44.688 80.943 45.262 80.181 45.262 z" />
      </g>
      <g transform="matrix(1 0 0 1 0 5)">
        <path style="fill: rgb(208,208,208);" d="M 25.162 45.262 L 19.82 45.262 C 19.057 45.262 18.483 44.688 18.483 43.926 C 18.483 43.227 19.057 42.589 19.82 42.589 L 25.162 42.589 C 25.863 42.589 26.499 43.227 26.499 43.926 C 26.499 44.688 25.863 45.262 25.162 45.262 z" />
      </g>
      <g transform="matrix(1 0 0 1 3 3)">
        <path style="fill: rgb(208,208,208);" d="M 72.297 23.571 L 68.48 27.325 C 67.971 27.833 67.143 27.833 66.634 27.325 C 66.06 26.816 66.06 25.988 66.634 25.416 L 70.386 21.665 C 70.894 21.154 71.788 21.154 72.297 21.665 C 72.805 22.173 72.805 23.063 72.297 23.571 z" />
      </g>
      <g transform="matrix(1 0 0 1 0 10)">
        <path style="fill: rgb(208,208,208);" d="M 33.366 62.436 L 29.615 66.251 C 29.046 66.761 28.217 66.761 27.709 66.251 C 27.201 65.742 27.201 64.853 27.709 64.344 L 31.46 60.591 C 31.968 60.082 32.858 60.082 33.366 60.591 C 33.879 61.099 33.879 61.927 33.366 62.436 z" />
      </g>
      <g transform="matrix(1 0 0 1 4 8)">
        <path style="fill: rgb(208,208,208);" d="M 70.386 66.251 L 66.634 62.436 C 66.06 61.927 66.06 61.099 66.634 60.591 C 67.143 60.082 67.971 60.082 68.48 60.591 L 72.297 64.344 C 72.805 64.853 72.805 65.742 72.297 66.251 C 71.788 66.761 70.894 66.761 70.386 66.251 z" />
      </g>
      <g transform="matrix(1 0 0 1 1 3)">
        <path style="fill: rgb(208,208,208);" d="M 31.459 27.325 L 27.708 23.571 C 27.2 23.063 27.2 22.173 27.708 21.665 C 28.216 21.154 29.045 21.154 29.614 21.665 L 33.365 25.416 C 33.878 25.988 33.878 26.816 33.365 27.325 C 32.857 27.833 31.968 27.833 31.459 27.325 z" />
      </g>
      <g transform="matrix(1 0 0 1 0 5)">
        <path style="fill: rgb(208,208,208);" d="M 49.967 19.311 L 49.967 13.903 C 49.967 13.204 50.541 12.569 51.303 12.569 C 52.004 12.569 52.64 13.204 52.64 13.903 L 52.64 19.311 C 52.64 20.01 52.004 20.645 51.303 20.645 C 50.541 20.646 49.967 20.01 49.967 19.311 z" />
      </g>
    </g>
    <g transform="matrix(1 0 0 1 52 58)">
      <text xml:space="preserve" font-family="Lato, Arial, sans-serif" font-size="40" font-weight="400" style="fill: rgb(208,208,208);">
        <tspan x="-8.95" y="12.57">?</tspan>
      </text>
    </g>
  </g>
    <g transform="matrix(1 0 0 1 50 50)">
    <rect style="stroke: rgb(255,255,255); stroke-width: 50; fill: rgb(0,0,0,0);" rx="3" ry="3" width="700" height="700" />
  </g>

</svg>